<mxfile host="app.diagrams.net" agent="Mozilla/5.0 (Windows NT 10.0; Win64; x64) AppleWebKit/537.36 (KHTML, like Gecko) Chrome/137.0.0.0 Safari/537.36" version="27.1.5">
  <diagram name="Page-1" id="5f0bae14-7c28-e335-631c-24af17079c00">
    <mxGraphModel dx="2314" dy="624" grid="1" gridSize="10" guides="1" tooltips="1" connect="1" arrows="1" fold="1" page="1" pageScale="1" pageWidth="1100" pageHeight="850" background="none" math="0" shadow="0">
      <root>
        <mxCell id="0" />
        <mxCell id="1" parent="0" />
        <mxCell id="39150e848f15840c-1" value="Servidor web" style="verticalAlign=top;align=center;spacingTop=8;spacingLeft=2;spacingRight=12;shape=cube;size=10;direction=south;fontStyle=4;html=1;rounded=0;shadow=0;comic=0;labelBackgroundColor=none;strokeWidth=1;fontFamily=Verdana;fontSize=12" parent="1" vertex="1">
          <mxGeometry x="410" y="150" width="700" height="770" as="geometry" />
        </mxCell>
        <mxCell id="figjRrZsGxUB7EfKV2yJ-2" value="&amp;lt;&amp;lt;Requerimientos&amp;gt;&amp;gt;" style="text;html=1;align=center;verticalAlign=middle;resizable=0;points=[];autosize=1;strokeColor=none;fillColor=none;" vertex="1" parent="1">
          <mxGeometry x="410" y="185" width="140" height="30" as="geometry" />
        </mxCell>
        <mxCell id="figjRrZsGxUB7EfKV2yJ-3" value="&lt;div&gt;Procesador: 2 vCPU (mínimo)&lt;/div&gt;&lt;div&gt;&lt;br&gt;&lt;/div&gt;&lt;div&gt;Memoria RAM: 4 GB&lt;/div&gt;&lt;div&gt;&lt;br&gt;&lt;/div&gt;&lt;div&gt;Disco: 50 GB SSD&lt;/div&gt;&lt;div&gt;&lt;br&gt;&lt;/div&gt;&lt;div&gt;Red: 1 Gbps&lt;/div&gt;&lt;div&gt;&lt;br&gt;&lt;/div&gt;&lt;div&gt;Sistema Operativo: Linux (Ubuntu Server o CentOS) o Windows Server&lt;/div&gt;" style="text;html=1;align=left;verticalAlign=middle;resizable=0;points=[];autosize=1;strokeColor=none;fillColor=none;" vertex="1" parent="1">
          <mxGeometry x="550" y="190" width="400" height="140" as="geometry" />
        </mxCell>
        <mxCell id="figjRrZsGxUB7EfKV2yJ-4" value="&amp;lt;&amp;lt;Ejecutables&amp;gt;&amp;gt;" style="text;whiteSpace=wrap;html=1;" vertex="1" parent="1">
          <mxGeometry x="420" y="360" width="50" height="40" as="geometry" />
        </mxCell>
        <mxCell id="figjRrZsGxUB7EfKV2yJ-5" value="&lt;div&gt;+Node.js&lt;/div&gt;&lt;div&gt;&lt;br&gt;&lt;/div&gt;&lt;div&gt;+Express.js&lt;/div&gt;&lt;div&gt;&lt;br&gt;&lt;/div&gt;&lt;div&gt;+HTML/CSS/JavaScript&lt;/div&gt;&lt;div&gt;&lt;br&gt;&lt;/div&gt;&lt;div&gt;+Cliente de conexión a MySQL/PostgreSQL&lt;/div&gt;&lt;div&gt;&lt;br&gt;&lt;/div&gt;&lt;div&gt;+Archivos HTML:&lt;/div&gt;&lt;div&gt;&amp;nbsp; &amp;nbsp; &amp;nbsp; +registro.html&lt;/div&gt;&lt;div&gt;&amp;nbsp; &amp;nbsp; &amp;nbsp; +administracion.html&lt;/div&gt;&lt;div&gt;&amp;nbsp; &amp;nbsp; &amp;nbsp; +editarprecio.html&lt;/div&gt;&lt;div&gt;&amp;nbsp; &amp;nbsp; &amp;nbsp; +inicio.html&lt;/div&gt;&lt;div&gt;&amp;nbsp; &amp;nbsp; &amp;nbsp; +iniciosesion.html&lt;/div&gt;&lt;div&gt;&amp;nbsp; &amp;nbsp; &amp;nbsp; +cierresesion.html&lt;/div&gt;&lt;div&gt;&amp;nbsp; &amp;nbsp; &amp;nbsp; +articulo.html&lt;/div&gt;&lt;div&gt;&amp;nbsp; &amp;nbsp; &amp;nbsp; +deseos.html&lt;/div&gt;&lt;div&gt;&amp;nbsp; &amp;nbsp; &amp;nbsp; +definiretiqueta.html&lt;/div&gt;&lt;div&gt;&lt;br&gt;&lt;/div&gt;&lt;div&gt;+Archivos JavaScript:&lt;/div&gt;&lt;div&gt;&amp;nbsp; &amp;nbsp; &amp;nbsp; +cambiopagina.js&lt;/div&gt;&lt;div&gt;&amp;nbsp; &amp;nbsp; &amp;nbsp; +cambiararti.js&lt;/div&gt;&lt;div&gt;&amp;nbsp; &amp;nbsp; &amp;nbsp; +añadirarti.js&lt;/div&gt;&lt;div&gt;&amp;nbsp; &amp;nbsp; &amp;nbsp; +quitararti.js&lt;/div&gt;&lt;div&gt;&amp;nbsp; &amp;nbsp; &amp;nbsp; +variararti.js&lt;/div&gt;&lt;div&gt;&amp;nbsp; &amp;nbsp; &amp;nbsp; +dejarcomentario.js&lt;/div&gt;&lt;div&gt;&amp;nbsp; &amp;nbsp; &amp;nbsp; +eliminarcomentario.js&lt;/div&gt;&lt;div&gt;&amp;nbsp; &amp;nbsp; &amp;nbsp; +cambiarranking.js&lt;/div&gt;&lt;div&gt;&amp;nbsp; &amp;nbsp; &amp;nbsp; +seguimientoe.js&lt;/div&gt;&lt;div&gt;&amp;nbsp; &amp;nbsp; &amp;nbsp; +buscador.js&lt;/div&gt;" style="text;html=1;align=left;verticalAlign=middle;resizable=0;points=[];autosize=1;strokeColor=none;fillColor=none;" vertex="1" parent="1">
          <mxGeometry x="550" y="360" width="260" height="450" as="geometry" />
        </mxCell>
        <mxCell id="figjRrZsGxUB7EfKV2yJ-7" value="Administrador" style="verticalAlign=top;align=center;spacingTop=8;spacingLeft=2;spacingRight=12;shape=cube;size=10;direction=south;fontStyle=4;html=1;rounded=0;shadow=0;comic=0;labelBackgroundColor=none;strokeWidth=1;fontFamily=Verdana;fontSize=12" vertex="1" parent="1">
          <mxGeometry x="1290" y="150" width="430" height="300" as="geometry" />
        </mxCell>
        <mxCell id="figjRrZsGxUB7EfKV2yJ-8" value="&amp;lt;&amp;lt;Requerimientos&amp;gt;&amp;gt;" style="text;html=1;align=center;verticalAlign=middle;resizable=0;points=[];autosize=1;strokeColor=none;fillColor=none;" vertex="1" parent="1">
          <mxGeometry x="1290" y="190" width="140" height="30" as="geometry" />
        </mxCell>
        <mxCell id="figjRrZsGxUB7EfKV2yJ-9" value="+Conexión a Internet&#xa;+Navegador web" style="text;whiteSpace=wrap;" vertex="1" parent="1">
          <mxGeometry x="1430" y="200" width="150" height="50" as="geometry" />
        </mxCell>
        <mxCell id="figjRrZsGxUB7EfKV2yJ-10" value="&lt;&lt;Ejecutables&gt;&gt;" style="text;whiteSpace=wrap;" vertex="1" parent="1">
          <mxGeometry x="1300" y="270" width="120" height="40" as="geometry" />
        </mxCell>
        <UserObject label="+Panel de administración web&#xa;+Scripts cargados por el navegador (desde el servidor):&#xa;     +editarprecio.js&#xa;     +modificarproducto.js&#xa;     +gestionarpedidos.js&#xa;     +moderarcomentarios.js&#xa;     +configuracionesadmin.js&#xa;     +cierresesion.js" link="+Panel de administración web&#xa;+Scripts cargados por el navegador (desde el servidor):&#xa;&#xa;&#xa;     +editarprecio.js&#xa;&#xa;&#xa;     +modificarproducto.js&#xa;&#xa;&#xa;     +gestionarpedidos.js&#xa;&#xa;&#xa;     +moderarcomentarios.js&#xa;&#xa;&#xa;     +configuracionesadmin.js&#xa;&#xa;&#xa;     +cierresesion.js" id="figjRrZsGxUB7EfKV2yJ-11">
          <mxCell style="text;whiteSpace=wrap;" vertex="1" parent="1">
            <mxGeometry x="1400" y="260" width="330" height="140" as="geometry" />
          </mxCell>
        </UserObject>
        <mxCell id="figjRrZsGxUB7EfKV2yJ-12" value="Servicios Externes" style="verticalAlign=top;align=center;spacingTop=8;spacingLeft=2;spacingRight=12;shape=cube;size=10;direction=south;fontStyle=4;html=1;rounded=0;shadow=0;comic=0;labelBackgroundColor=none;strokeWidth=1;fontFamily=Verdana;fontSize=12" vertex="1" parent="1">
          <mxGeometry x="1280" y="510" width="460" height="370" as="geometry" />
        </mxCell>
        <mxCell id="figjRrZsGxUB7EfKV2yJ-13" value="&amp;lt;&amp;lt;Requerimientos&amp;gt;&amp;gt;" style="text;html=1;align=center;verticalAlign=middle;resizable=0;points=[];autosize=1;strokeColor=none;fillColor=none;" vertex="1" parent="1">
          <mxGeometry x="1280" y="560" width="140" height="30" as="geometry" />
        </mxCell>
        <mxCell id="figjRrZsGxUB7EfKV2yJ-14" value="&lt;div&gt;+Conexión HTTPS&lt;/div&gt;&lt;div&gt;&lt;br&gt;&lt;/div&gt;&lt;div&gt;+Certificado SSL válido&lt;/div&gt;&lt;div&gt;&lt;br&gt;&lt;/div&gt;&lt;div&gt;+Claves API (Client ID / Secret Key)&lt;/div&gt;&lt;div&gt;&lt;br&gt;&lt;/div&gt;&lt;div&gt;+URL de callback para recibir confirmación del pago&lt;/div&gt;" style="text;html=1;align=left;verticalAlign=middle;resizable=0;points=[];autosize=1;strokeColor=none;fillColor=none;" vertex="1" parent="1">
          <mxGeometry x="1420" y="560" width="300" height="110" as="geometry" />
        </mxCell>
        <mxCell id="figjRrZsGxUB7EfKV2yJ-15" value="&lt;span style=&quot;color: rgb(0, 0, 0); font-family: Helvetica; font-size: 12px; font-style: normal; font-variant-ligatures: normal; font-variant-caps: normal; font-weight: 400; letter-spacing: normal; orphans: 2; text-align: center; text-indent: 0px; text-transform: none; widows: 2; word-spacing: 0px; -webkit-text-stroke-width: 0px; white-space: nowrap; background-color: rgb(236, 236, 236); text-decoration-thickness: initial; text-decoration-style: initial; text-decoration-color: initial; float: none; display: inline !important;&quot;&gt;&amp;lt;&amp;lt;Ejecutables&amp;gt;&amp;gt;&lt;/span&gt;" style="text;whiteSpace=wrap;html=1;" vertex="1" parent="1">
          <mxGeometry x="1290" y="690" width="150" height="40" as="geometry" />
        </mxCell>
        <mxCell id="figjRrZsGxUB7EfKV2yJ-16" value="+SDK/API de la pasarela (WebPay, PayPal, etc.)&#xa;&#xa;&#xa;+Módulo de integración de pagos en el backend&#xa;&#xa;&#xa;+Callback para registrar el estado del pago&#xa;&#xa;&#xa;+Validación de respuesta del proveedor" style="text;whiteSpace=wrap;" vertex="1" parent="1">
          <mxGeometry x="1400" y="700" width="290" height="170" as="geometry" />
        </mxCell>
        <mxCell id="figjRrZsGxUB7EfKV2yJ-17" value="Cliente PC o Celular" style="verticalAlign=top;align=center;spacingTop=8;spacingLeft=2;spacingRight=12;shape=cube;size=10;direction=south;fontStyle=4;html=1;rounded=0;shadow=0;comic=0;labelBackgroundColor=none;strokeWidth=1;fontFamily=Verdana;fontSize=12" vertex="1" parent="1">
          <mxGeometry x="-70" y="670" width="290" height="230" as="geometry" />
        </mxCell>
        <mxCell id="figjRrZsGxUB7EfKV2yJ-18" value="&lt;&lt;Requerimientos&gt;&gt;" style="text;whiteSpace=wrap;" vertex="1" parent="1">
          <mxGeometry x="-60" y="725" width="150" height="40" as="geometry" />
        </mxCell>
        <mxCell id="figjRrZsGxUB7EfKV2yJ-19" value="+Conexión a Internet" style="text;whiteSpace=wrap;" vertex="1" parent="1">
          <mxGeometry x="60" y="740" width="150" height="40" as="geometry" />
        </mxCell>
        <mxCell id="figjRrZsGxUB7EfKV2yJ-20" value="&lt;&lt;Ejecutables&gt;&gt;" style="text;whiteSpace=wrap;" vertex="1" parent="1">
          <mxGeometry x="-60" y="810" width="120" height="40" as="geometry" />
        </mxCell>
        <mxCell id="figjRrZsGxUB7EfKV2yJ-21" value="+Navegador&#xa;+Buscador" style="text;whiteSpace=wrap;" vertex="1" parent="1">
          <mxGeometry x="60" y="830" width="100" height="50" as="geometry" />
        </mxCell>
        <mxCell id="figjRrZsGxUB7EfKV2yJ-22" value="Base de datos" style="verticalAlign=top;align=center;spacingTop=8;spacingLeft=2;spacingRight=12;shape=cube;size=10;direction=south;fontStyle=4;html=1;rounded=0;shadow=0;comic=0;labelBackgroundColor=none;strokeWidth=1;fontFamily=Verdana;fontSize=12" vertex="1" parent="1">
          <mxGeometry x="-130" y="185" width="410" height="405" as="geometry" />
        </mxCell>
        <mxCell id="figjRrZsGxUB7EfKV2yJ-23" value="&lt;&lt;Requerimientos&gt;&gt;" style="text;whiteSpace=wrap;" vertex="1" parent="1">
          <mxGeometry x="-130" y="220" width="150" height="40" as="geometry" />
        </mxCell>
        <mxCell id="figjRrZsGxUB7EfKV2yJ-24" value="+Procesador: 2 vCPU&#xa;&#xa;&#xa;+Memoria RAM: 2 GB&#xa;&#xa;&#xa;+Disco: 30 GB SSD&#xa;&#xa;&#xa;+Conectividad: conexión SQL desde servidor web" style="text;whiteSpace=wrap;" vertex="1" parent="1">
          <mxGeometry x="-10" y="220" width="300" height="170" as="geometry" />
        </mxCell>
        <mxCell id="figjRrZsGxUB7EfKV2yJ-25" value="&amp;lt;&amp;lt;Ejecutables&amp;gt;&amp;gt;" style="text;html=1;align=center;verticalAlign=middle;resizable=0;points=[];autosize=1;strokeColor=none;fillColor=none;" vertex="1" parent="1">
          <mxGeometry x="-130" y="390" width="110" height="30" as="geometry" />
        </mxCell>
        <mxCell id="figjRrZsGxUB7EfKV2yJ-26" value="+Motor de base de datos: MySQL Server&#xa;&#xa;+Servicio de replicación&#xa;&#xa;+Controlador SQL&#xa;&#xa;+Esquema con las siguientes tablas:&#xa;       +usuarios&#xa;       +productos&#xa;        +pedidos&#xa;        +reseñas&#xa;        +inventario" style="text;whiteSpace=wrap;" vertex="1" parent="1">
          <mxGeometry x="-10" y="395" width="250" height="205" as="geometry" />
        </mxCell>
        <mxCell id="figjRrZsGxUB7EfKV2yJ-28" value="" style="endArrow=none;html=1;rounded=0;exitX=0.531;exitY=-0.005;exitDx=0;exitDy=0;exitPerimeter=0;" edge="1" parent="1" source="figjRrZsGxUB7EfKV2yJ-22">
          <mxGeometry width="50" height="50" relative="1" as="geometry">
            <mxPoint x="390" y="440" as="sourcePoint" />
            <mxPoint x="410" y="399" as="targetPoint" />
          </mxGeometry>
        </mxCell>
        <mxCell id="figjRrZsGxUB7EfKV2yJ-29" value="&amp;nbsp;HTTP o HTTPS" style="text;html=1;align=center;verticalAlign=middle;resizable=0;points=[];autosize=1;strokeColor=none;fillColor=none;" vertex="1" parent="1">
          <mxGeometry x="290" y="372.5" width="110" height="30" as="geometry" />
        </mxCell>
        <mxCell id="figjRrZsGxUB7EfKV2yJ-30" value="" style="endArrow=none;html=1;rounded=0;exitX=0;exitY=0;exitDx=110;exitDy=0;exitPerimeter=0;entryX=0.821;entryY=1.003;entryDx=0;entryDy=0;entryPerimeter=0;" edge="1" parent="1" source="figjRrZsGxUB7EfKV2yJ-17" target="39150e848f15840c-1">
          <mxGeometry width="50" height="50" relative="1" as="geometry">
            <mxPoint x="370" y="840" as="sourcePoint" />
            <mxPoint x="420" y="790" as="targetPoint" />
          </mxGeometry>
        </mxCell>
        <mxCell id="figjRrZsGxUB7EfKV2yJ-31" value="&amp;nbsp;HTTP o HTTPS" style="text;html=1;align=center;verticalAlign=middle;resizable=0;points=[];autosize=1;strokeColor=none;fillColor=none;" vertex="1" parent="1">
          <mxGeometry x="260" y="750" width="110" height="30" as="geometry" />
        </mxCell>
        <mxCell id="figjRrZsGxUB7EfKV2yJ-32" value="" style="endArrow=none;html=1;rounded=0;entryX=0.576;entryY=1;entryDx=0;entryDy=0;entryPerimeter=0;exitX=0.222;exitY=-0.002;exitDx=0;exitDy=0;exitPerimeter=0;" edge="1" parent="1" source="39150e848f15840c-1" target="figjRrZsGxUB7EfKV2yJ-7">
          <mxGeometry width="50" height="50" relative="1" as="geometry">
            <mxPoint x="1090" y="420" as="sourcePoint" />
            <mxPoint x="1140" y="370" as="targetPoint" />
          </mxGeometry>
        </mxCell>
        <mxCell id="figjRrZsGxUB7EfKV2yJ-33" value="&amp;nbsp;HTTP o HTTPS" style="text;html=1;align=center;verticalAlign=middle;resizable=0;points=[];autosize=1;strokeColor=none;fillColor=none;" vertex="1" parent="1">
          <mxGeometry x="1135" y="288" width="110" height="30" as="geometry" />
        </mxCell>
        <mxCell id="figjRrZsGxUB7EfKV2yJ-34" value="" style="endArrow=none;html=1;rounded=0;entryX=0;entryY=0;entryDx=190;entryDy=460;entryPerimeter=0;exitX=0.714;exitY=-0.003;exitDx=0;exitDy=0;exitPerimeter=0;" edge="1" parent="1" source="39150e848f15840c-1" target="figjRrZsGxUB7EfKV2yJ-12">
          <mxGeometry width="50" height="50" relative="1" as="geometry">
            <mxPoint x="1070" y="680" as="sourcePoint" />
            <mxPoint x="1120" y="630" as="targetPoint" />
          </mxGeometry>
        </mxCell>
        <mxCell id="figjRrZsGxUB7EfKV2yJ-35" value="HTTPS / REST API" style="text;html=1;align=center;verticalAlign=middle;resizable=0;points=[];autosize=1;strokeColor=none;fillColor=none;" vertex="1" parent="1">
          <mxGeometry x="1125" y="670" width="130" height="30" as="geometry" />
        </mxCell>
      </root>
    </mxGraphModel>
  </diagram>
</mxfile>
